<svg width="43" height="50" viewBox="0 0 43 50" fill="none" xmlns="http://www.w3.org/2000/svg">
<path d="M42.8532 10.7177V31.0131C42.8532 41.3248 34.6284 49.8845 24.3278 49.9983C21.8278 50.032 19.3464 49.5636 17.0307 48.6209C14.7151 47.6781 12.6121 46.2802 10.8466 44.5099C5.97864 39.3607 0.479037 26.7879 0.479037 26.7879C0.237126 26.3692 0.0827613 25.9058 0.0253025 25.4257C-0.0321563 24.9455 0.00848754 24.4588 0.14477 23.9948C0.281052 23.5309 0.510133 23.0994 0.818126 22.7267C1.12612 22.3539 1.50661 22.0476 1.93652 21.8262C3.64622 20.9334 5.75321 21.6387 6.71296 23.3038L11.4001 31.4371C11.5305 31.6713 11.7272 31.8617 11.9654 31.9845C12.2037 32.1072 12.473 32.1567 12.7393 32.1268H12.7661C13.195 32.053 13.5835 31.8286 13.8617 31.4939C14.1399 31.1592 14.2896 30.7362 14.2838 30.3011V7.14648C14.2833 6.66269 14.381 6.18383 14.5711 5.73896C14.7613 5.29409 15.0398 4.89248 15.3898 4.55852C15.7399 4.22456 16.1541 3.9652 16.6074 3.79619C17.0607 3.62717 17.5436 3.55203 18.0269 3.57531C19.9486 3.66459 21.4262 5.32072 21.4262 7.24246V21.4312C21.4256 21.6759 21.4754 21.9182 21.5725 22.1429C21.6695 22.3677 21.8117 22.57 21.9903 22.7375C22.1688 22.905 22.3799 23.0339 22.6104 23.1163C22.8409 23.1988 23.0858 23.233 23.3301 23.2167C23.7892 23.1773 24.2164 22.9655 24.5257 22.6239C24.8351 22.2822 25.0036 21.8362 24.9974 21.3754V3.57531C24.9968 3.09152 25.0945 2.61266 25.2847 2.16779C25.4748 1.72291 25.7533 1.32131 26.1033 0.98735C26.4534 0.653388 26.8676 0.39403 27.3209 0.225015C27.7742 0.0560011 28.2572 -0.0191447 28.7404 0.00413816C30.6621 0.0934174 32.1397 1.74955 32.1397 3.67128V23.2167C32.1392 23.4615 32.189 23.7038 32.286 23.9285C32.383 24.1533 32.5252 24.3556 32.7038 24.5231C32.8823 24.6905 33.0934 24.8195 33.3239 24.9019C33.5544 24.9844 33.7993 25.0186 34.0436 25.0023C34.5027 24.9629 34.9299 24.7511 35.2393 24.4094C35.5486 24.0678 35.7171 23.6218 35.7109 23.161V10.8181C35.7109 8.89635 37.1884 7.24692 39.1102 7.15094C39.593 7.12768 40.0756 7.20269 40.5286 7.37143C40.9816 7.54017 41.3956 7.79913 41.7456 8.13262C42.0956 8.4661 42.3742 8.86717 42.5646 9.31151C42.755 9.75586 42.8532 10.2342 42.8532 10.7177Z" fill="#FAB37A"/>
</svg>
