<svg width="56" height="50" viewBox="0 0 56 50" fill="none" xmlns="http://www.w3.org/2000/svg">
<path d="M53.6942 7.05583C51.373 2.29224 44.6867 -1.60525 36.909 0.663955C33.1925 1.73748 29.9499 4.03967 27.711 7.19441C25.4721 4.03967 22.2295 1.73748 18.5129 0.663955C10.718 -1.5706 4.04892 2.29224 1.72776 7.05583C-1.52881 13.7249 -0.17768 21.2254 5.7465 29.3494C10.3888 35.7067 17.0232 42.1505 26.6543 49.6337C26.9587 49.8711 27.3336 50 27.7196 50C28.1056 50 28.4806 49.8711 28.785 49.6337C38.3988 42.1678 45.0505 35.776 49.6928 29.3494C55.5997 21.2254 56.9508 13.7249 53.6942 7.05583Z" fill="#FAB37A"/>
</svg>
