<svg width="46" height="50" viewBox="0 0 46 50" fill="none" xmlns="http://www.w3.org/2000/svg">
<path d="M24.4878 50H20.7205C19.7214 50 18.7632 49.5948 18.0567 48.8735C17.3502 48.1522 16.9533 47.1739 16.9533 46.1538L16.9592 35.8389C16.9593 35.7545 16.9376 35.6715 16.8963 35.5983C16.8551 35.5251 16.7956 35.4643 16.724 35.4221C16.6524 35.3798 16.5712 35.3575 16.4884 35.3575C16.4057 35.3574 16.3244 35.3796 16.2528 35.4219L7.501 40.5974C6.64984 41.099 5.63836 41.235 4.68902 40.9753C3.73968 40.7157 2.93025 40.0817 2.43875 39.2127L0.496254 35.7704L0.48919 35.7584C0.0109326 34.8898 -0.114427 33.8643 0.14006 32.9024C0.394547 31.9404 1.00856 31.1188 1.85011 30.6142L10.6337 25.4159C10.7051 25.3736 10.7643 25.3129 10.8055 25.24C10.8467 25.167 10.8683 25.0842 10.8683 25C10.8683 24.9158 10.8467 24.833 10.8055 24.76C10.7643 24.6871 10.7051 24.6264 10.6337 24.5841L1.85835 19.3906C1.43583 19.1433 1.06534 18.8131 0.76815 18.4192C0.470961 18.0252 0.252933 17.5752 0.126585 17.095C0.000238117 16.6147 -0.0319378 16.1137 0.031905 15.6208C0.0957479 15.1278 0.254353 14.6526 0.498609 14.2224L2.43404 10.7909C2.6786 10.357 3.00504 9.97707 3.39445 9.67296C3.78386 9.36886 4.22851 9.14665 4.70263 9.01923C5.17135 8.89081 5.66038 8.85868 6.14136 8.9247C6.62233 8.99072 7.08568 9.15359 7.50453 9.40385L16.2528 14.5721C16.3244 14.6143 16.4057 14.6366 16.4884 14.6365C16.5712 14.6365 16.6524 14.6142 16.724 14.5719C16.7956 14.5297 16.8551 14.4689 16.8963 14.3957C16.9376 14.3225 16.9593 14.2395 16.9592 14.155L16.9533 3.84615C16.9533 2.82609 17.3502 1.84781 18.0567 1.12651C18.7632 0.405218 19.7214 0 20.7205 0H24.4878C25.4869 0 26.4452 0.405218 27.1517 1.12651C27.8582 1.84781 28.2551 2.82609 28.2551 3.84615V14.149C28.2549 14.2335 28.2766 14.3165 28.3179 14.3897C28.3592 14.4629 28.4186 14.5236 28.4902 14.5659C28.5618 14.6082 28.6431 14.6305 28.7258 14.6305C28.8085 14.6305 28.8898 14.6083 28.9614 14.5661L37.7132 9.39062C38.5646 8.88992 39.5758 8.75451 40.5248 9.01409C41.4739 9.27368 42.2833 9.90706 42.7755 10.7752L44.7168 14.2175L44.7239 14.2284C45.2076 15.0979 45.335 16.1273 45.0783 17.0923C44.8216 18.0573 44.2016 18.8796 43.3535 19.3798L34.5793 24.5721C34.508 24.6144 34.4487 24.675 34.4076 24.748C34.3664 24.821 34.3447 24.9038 34.3447 24.988C34.3447 25.0722 34.3664 25.155 34.4076 25.2279C34.4487 25.3009 34.508 25.3616 34.5793 25.4038L43.3535 30.5962C43.776 30.8435 44.1465 31.1737 44.4437 31.5676C44.741 31.9615 44.959 32.4115 45.0855 32.8917C45.2119 33.3719 45.2443 33.8728 45.1806 34.3658C45.1169 34.8588 44.9585 35.3341 44.7144 35.7644L42.779 39.1959C42.5345 39.6297 42.208 40.0097 41.8186 40.3138C41.4292 40.6179 40.9845 40.8401 40.5104 40.9675C40.0417 41.096 39.5527 41.1281 39.0717 41.0621C38.5907 40.9961 38.1274 40.8332 37.7085 40.5829L28.9602 35.4147C28.8887 35.3725 28.8075 35.3503 28.7249 35.3503C28.6423 35.3502 28.5611 35.3724 28.4895 35.4145C28.418 35.4567 28.3585 35.5173 28.3172 35.5903C28.2758 35.6633 28.254 35.7462 28.2539 35.8305L28.2551 46.1538C28.2551 47.1739 27.8582 48.1522 27.1517 48.8735C26.4452 49.5948 25.4869 50 24.4878 50Z" fill="#FAB37A"/>
</svg>
